<svg xmlns="http://www.w3.org/2000/svg" width="443" height="445" viewBox="0 0 443 445">
  <defs>
    <style>
      .cls-1 {
        fill: #fff;
      }

      .cls-2 {
        fill: none;
        stroke: #231f20;
        stroke-miterlimit: 10;
        stroke-width: 17px;
      }
    </style>
  </defs>
  <g id="Layer_2" data-name="Layer 2">
    <g id="Layer_1-2" data-name="Layer 1">
      <g>
        <g>
          <rect class="cls-1" x="-51" y="202" width="547" height="37.45" rx="10" transform="translate(-91 222) rotate(-45)"/>
          <rect class="cls-2" x="-51" y="202" width="547" height="37.45" rx="10" transform="translate(-91 222) rotate(-45)"/>
        </g>
        <g>
          <rect class="cls-1" x="286" y="-28" width="42" height="329.6" rx="10" transform="translate(-7 257) rotate(-45)"/>
          <rect class="cls-2" x="286" y="-28" width="42" height="329.6" rx="10" transform="translate(-7 257) rotate(-45)"/>
        </g>
        <g>
          <rect class="cls-1" x="115" y="141" width="42" height="329.6" rx="10" transform="translate(-176 186) rotate(-45)"/>
          <rect class="cls-2" x="115" y="141" width="42" height="329.6" rx="10" transform="translate(-176 186) rotate(-45)"/>
        </g>
        <g>
          <rect class="cls-1" x="317" y="-16" width="42" height="243.15" rx="10" transform="translate(25 270) rotate(-45)"/>
          <rect class="cls-2" x="317" y="-16" width="42" height="243.15" rx="10" transform="translate(25 270) rotate(-45)"/>
        </g>
        <g>
          <rect class="cls-1" x="89" y="218" width="42" height="243.15" rx="10" transform="translate(-208 177) rotate(-45)"/>
          <rect class="cls-2" x="89" y="218" width="42" height="243.15" rx="10" transform="translate(-208 177) rotate(-45)"/>
        </g>
      </g>
    </g>
  </g>
</svg>
