<svg xmlns="http://www.w3.org/2000/svg" width="452" height="453" viewBox="0 0 452 453">
  <defs>
    <style>
      .cls-1 {
        fill: #fff;
      }

      .cls-2 {
        fill: none;
        stroke: #231f20;
        stroke-miterlimit: 10;
        stroke-width: 12px;
      }
    </style>
  </defs>
  <g id="Layer_2" data-name="Layer 2">
    <g id="Layer_1-2" data-name="Layer 1">
      <g>
        <g>
          <rect class="cls-1" x="-55" y="206" width="564" height="38.62" rx="10" transform="translate(-93 226) rotate(-45)"/>
          <rect class="cls-2" x="-55" y="206" width="564" height="38.62" rx="10" transform="translate(-93 226) rotate(-45)"/>
        </g>
        <g>
          <rect class="cls-1" x="292" y="-32" width="43" height="339.88" rx="10" transform="translate(-6 262) rotate(-45)"/>
          <rect class="cls-2" x="292" y="-32" width="43" height="339.88" rx="10" transform="translate(-6 262) rotate(-45)"/>
        </g>
        <g>
          <rect class="cls-1" x="116" y="143" width="43" height="339.88" rx="10" transform="translate(-181 189) rotate(-45)"/>
          <rect class="cls-2" x="116" y="143" width="43" height="339.88" rx="10" transform="translate(-181 189) rotate(-45)"/>
        </g>
        <g>
          <rect class="cls-1" x="324" y="-20" width="43" height="250.73" rx="10" transform="translate(27 276) rotate(-45)"/>
          <rect class="cls-2" x="324" y="-20" width="43" height="250.73" rx="10" transform="translate(27 276) rotate(-45)"/>
        </g>
        <g>
          <rect class="cls-1" x="89" y="222" width="43" height="250.73" rx="10" transform="translate(-213 180) rotate(-45)"/>
          <rect class="cls-2" x="89" y="222" width="43" height="250.73" rx="10" transform="translate(-213 180) rotate(-45)"/>
        </g>
      </g>
    </g>
  </g>
</svg>
