<svg xmlns="http://www.w3.org/2000/svg" width="447" height="448" viewBox="0 0 447 448">
  <defs>
    <style>
      .cls-1 {
        fill: #fff;
      }

      .cls-2 {
        fill: none;
        stroke: #231f20;
        stroke-miterlimit: 10;
        stroke-width: 7px;
      }
    </style>
  </defs>
  <g id="Layer_2" data-name="Layer 2">
    <g id="Layer_1-2" data-name="Layer 1">
      <g>
        <g>
          <rect class="cls-1" x="-58" y="203" width="564" height="38.62" rx="10" transform="translate(-92 224) rotate(-45)"/>
          <rect class="cls-2" x="-58" y="203" width="564" height="38.62" rx="10" transform="translate(-92 224) rotate(-45)"/>
        </g>
        <g>
          <rect class="cls-1" x="289" y="-34" width="43" height="339.88" rx="10" transform="translate(-5 260) rotate(-45)"/>
          <rect class="cls-2" x="289" y="-34" width="43" height="339.88" rx="10" transform="translate(-5 260) rotate(-45)"/>
        </g>
        <g>
          <rect class="cls-1" x="113" y="140" width="43" height="339.88" rx="10" transform="translate(-180 186) rotate(-45)"/>
          <rect class="cls-2" x="113" y="140" width="43" height="339.88" rx="10" transform="translate(-180 186) rotate(-45)"/>
        </g>
        <g>
          <rect class="cls-1" x="322" y="-22" width="43" height="250.73" rx="10" transform="translate(28 273) rotate(-45)"/>
          <rect class="cls-2" x="322" y="-22" width="43" height="250.73" rx="10" transform="translate(28 273) rotate(-45)"/>
        </g>
        <g>
          <rect class="cls-1" x="86" y="220" width="43" height="250.73" rx="10" transform="translate(-212 177) rotate(-45)"/>
          <rect class="cls-2" x="86" y="220" width="43" height="250.73" rx="10" transform="translate(-212 177) rotate(-45)"/>
        </g>
      </g>
    </g>
  </g>
</svg>
